# xmcd
#
# Track frame offsets:
#	150
#	13280
#	23562
#	38405
#	51322
#	62437
#	70717
#	86577
#	97740
#	110400
#	120410
#	133167
#	146805
#	163182
#	176447
#	187842
#
# Disc length: 2662 seconds
#
# Revision: 1
# Processed by: cddbd v1.5.2PL0 Copyright (c) Steve Scherf et al.
# Submitted via: audiograbber 1.83.01
#
DISCID=cb0a6410
DTITLE=Slim Whitman - The Legendary Slim Whitman
DYEAR=1998
DGENRE=Country
TTITLE0=Red Sails In The Sunset
TTITLE1=Any Time
TTITLE2=Mockin' Bird Hill
TTITLE3=Release Me
TTITLE4=The Wayward Wind
TTITLE5=Have You Ever Been Lonely?
TTITLE6=Down In The Valley
TTITLE7=Singing The Blues
TTITLE8=Half As Much
TTITLE9=Cara Mia
TTITLE10=Tennessee Waltz
TTITLE11=You Are My Sunshine
TTITLE12=The Three Bells (The Jimmy Brown Song)
TTITLE13=Til I Waltz Again With You
TTITLE14=It Is No Secret
TTITLE15=Now Is The Hour
EXTD=
EXTT0=
EXTT1=
EXTT2=
EXTT3=
EXTT4=
EXTT5=
EXTT6=
EXTT7=
EXTT8=
EXTT9=
EXTT10=
EXTT11=
EXTT12=
EXTT13=
EXTT14=
EXTT15=
PLAYORDER=
